<?xml version="1.0" standalone="no"?>
<svg id="wave" style="transform:rotate(0deg); transition: 0.3s" viewBox="0 0 1440 420" version="1.1"
     xmlns="http://www.w3.org/2000/svg"><defs><linearGradient id="sw-gradient-0" x1="0" x2="0" y1="1" y2="0"><stop stop-color="rgba(59, 130, 246, 1)" offset="0%"/><stop stop-color="rgba(29, 78, 216, 1)" offset="100%"/></linearGradient></defs><path style="transform:translate(0, 0px); opacity:1" fill="url(#sw-gradient-0)" d="M0,42L34.3,70C68.6,98,137,154,206,196C274.3,238,343,266,411,294C480,322,549,350,617,322C685.7,294,754,210,823,203C891.4,196,960,266,1029,273C1097.1,280,1166,224,1234,231C1302.9,238,1371,308,1440,301C1508.6,294,1577,210,1646,196C1714.3,182,1783,238,1851,266C1920,294,1989,294,2057,294C2125.7,294,2194,294,2263,294C2331.4,294,2400,294,2469,252C2537.1,210,2606,126,2674,105C2742.9,84,2811,126,2880,182C2948.6,238,3017,308,3086,308C3154.3,308,3223,238,3291,203C3360,168,3429,168,3497,140C3565.7,112,3634,56,3703,63C3771.4,70,3840,140,3909,161C3977.1,182,4046,154,4114,119C4182.9,84,4251,42,4320,84C4388.6,126,4457,252,4526,259C4594.3,266,4663,154,4731,98C4800,42,4869,42,4903,42L4937.1,42L4937.1,420L4902.9,420C4868.6,420,4800,420,4731,420C4662.9,420,4594,420,4526,420C4457.1,420,4389,420,4320,420C4251.4,420,4183,420,4114,420C4045.7,420,3977,420,3909,420C3840,420,3771,420,3703,420C3634.3,420,3566,420,3497,420C3428.6,420,3360,420,3291,420C3222.9,420,3154,420,3086,420C3017.1,420,2949,420,2880,420C2811.4,420,2743,420,2674,420C2605.7,420,2537,420,2469,420C2400,420,2331,420,2263,420C2194.3,420,2126,420,2057,420C1988.6,420,1920,420,1851,420C1782.9,420,1714,420,1646,420C1577.1,420,1509,420,1440,420C1371.4,420,1303,420,1234,420C1165.7,420,1097,420,1029,420C960,420,891,420,823,420C754.3,420,686,420,617,420C548.6,420,480,420,411,420C342.9,420,274,420,206,420C137.1,420,69,420,34,420L0,420Z"/><defs><linearGradient id="sw-gradient-1" x1="0" x2="0" y1="1" y2="0"><stop stop-color="rgba(96, 165, 250, 1)" offset="0%"/><stop stop-color="rgba(30, 64, 175, 1)" offset="100%"/></linearGradient></defs><path style="transform:translate(0, 50px); opacity:0.9" fill="url(#sw-gradient-1)" d="M0,210L34.3,231C68.6,252,137,294,206,315C274.3,336,343,336,411,315C480,294,549,252,617,259C685.7,266,754,322,823,329C891.4,336,960,294,1029,273C1097.1,252,1166,252,1234,273C1302.9,294,1371,336,1440,301C1508.6,266,1577,154,1646,105C1714.3,56,1783,70,1851,84C1920,98,1989,112,2057,161C2125.7,210,2194,294,2263,336C2331.4,378,2400,378,2469,315C2537.1,252,2606,126,2674,84C2742.9,42,2811,84,2880,126C2948.6,168,3017,210,3086,196C3154.3,182,3223,112,3291,119C3360,126,3429,210,3497,252C3565.7,294,3634,294,3703,294C3771.4,294,3840,294,3909,266C3977.1,238,4046,182,4114,175C4182.9,168,4251,210,4320,252C4388.6,294,4457,336,4526,308C4594.3,280,4663,182,4731,140C4800,98,4869,112,4903,119L4937.1,126L4937.1,420L4902.9,420C4868.6,420,4800,420,4731,420C4662.9,420,4594,420,4526,420C4457.1,420,4389,420,4320,420C4251.4,420,4183,420,4114,420C4045.7,420,3977,420,3909,420C3840,420,3771,420,3703,420C3634.3,420,3566,420,3497,420C3428.6,420,3360,420,3291,420C3222.9,420,3154,420,3086,420C3017.1,420,2949,420,2880,420C2811.4,420,2743,420,2674,420C2605.7,420,2537,420,2469,420C2400,420,2331,420,2263,420C2194.3,420,2126,420,2057,420C1988.6,420,1920,420,1851,420C1782.9,420,1714,420,1646,420C1577.1,420,1509,420,1440,420C1371.4,420,1303,420,1234,420C1165.7,420,1097,420,1029,420C960,420,891,420,823,420C754.3,420,686,420,617,420C548.6,420,480,420,411,420C342.9,420,274,420,206,420C137.1,420,69,420,34,420L0,420Z"/><defs><linearGradient id="sw-gradient-2" x1="0" x2="0" y1="1" y2="0"><stop stop-color="rgba(29, 78, 216, 1)" offset="0%"/><stop stop-color="rgba(59, 130, 246, 1)" offset="100%"/></linearGradient></defs><path style="transform:translate(0, 100px); opacity:0.8" fill="url(#sw-gradient-2)" d="M0,252L34.3,238C68.6,224,137,196,206,217C274.3,238,343,308,411,315C480,322,549,266,617,203C685.7,140,754,70,823,77C891.4,84,960,168,1029,168C1097.1,168,1166,84,1234,63C1302.9,42,1371,84,1440,91C1508.6,98,1577,70,1646,98C1714.3,126,1783,210,1851,238C1920,266,1989,238,2057,252C2125.7,266,2194,322,2263,322C2331.4,322,2400,266,2469,224C2537.1,182,2606,154,2674,140C2742.9,126,2811,126,2880,154C2948.6,182,3017,238,3086,259C3154.3,280,3223,266,3291,280C3360,294,3429,336,3497,301C3565.7,266,3634,154,3703,119C3771.4,84,3840,126,3909,126C3977.1,126,4046,84,4114,56C4182.9,28,4251,14,4320,28C4388.6,42,4457,84,4526,140C4594.3,196,4663,266,4731,245C4800,224,4869,112,4903,56L4937.1,0L4937.1,420L4902.9,420C4868.6,420,4800,420,4731,420C4662.9,420,4594,420,4526,420C4457.1,420,4389,420,4320,420C4251.4,420,4183,420,4114,420C4045.7,420,3977,420,3909,420C3840,420,3771,420,3703,420C3634.3,420,3566,420,3497,420C3428.6,420,3360,420,3291,420C3222.9,420,3154,420,3086,420C3017.1,420,2949,420,2880,420C2811.4,420,2743,420,2674,420C2605.7,420,2537,420,2469,420C2400,420,2331,420,2263,420C2194.3,420,2126,420,2057,420C1988.6,420,1920,420,1851,420C1782.9,420,1714,420,1646,420C1577.1,420,1509,420,1440,420C1371.4,420,1303,420,1234,420C1165.7,420,1097,420,1029,420C960,420,891,420,823,420C754.3,420,686,420,617,420C548.6,420,480,420,411,420C342.9,420,274,420,206,420C137.1,420,69,420,34,420L0,420Z"/><defs><linearGradient id="sw-gradient-3" x1="0" x2="0" y1="1" y2="0"><stop stop-color="rgba(29, 78, 216, 1)" offset="0%"/><stop stop-color="rgba(96, 165, 250, 1)" offset="100%"/></linearGradient></defs><path style="transform:translate(0, 150px); opacity:0.7" fill="url(#sw-gradient-3)" d="M0,336L34.3,280C68.6,224,137,112,206,119C274.3,126,343,252,411,273C480,294,549,210,617,175C685.7,140,754,154,823,147C891.4,140,960,112,1029,119C1097.1,126,1166,168,1234,161C1302.9,154,1371,98,1440,84C1508.6,70,1577,98,1646,119C1714.3,140,1783,154,1851,147C1920,140,1989,112,2057,140C2125.7,168,2194,252,2263,301C2331.4,350,2400,364,2469,343C2537.1,322,2606,266,2674,245C2742.9,224,2811,238,2880,203C2948.6,168,3017,84,3086,63C3154.3,42,3223,84,3291,126C3360,168,3429,210,3497,231C3565.7,252,3634,252,3703,210C3771.4,168,3840,84,3909,70C3977.1,56,4046,112,4114,147C4182.9,182,4251,196,4320,182C4388.6,168,4457,126,4526,119C4594.3,112,4663,140,4731,182C4800,224,4869,280,4903,308L4937.1,336L4937.1,420L4902.9,420C4868.6,420,4800,420,4731,420C4662.9,420,4594,420,4526,420C4457.1,420,4389,420,4320,420C4251.4,420,4183,420,4114,420C4045.7,420,3977,420,3909,420C3840,420,3771,420,3703,420C3634.3,420,3566,420,3497,420C3428.6,420,3360,420,3291,420C3222.9,420,3154,420,3086,420C3017.1,420,2949,420,2880,420C2811.4,420,2743,420,2674,420C2605.7,420,2537,420,2469,420C2400,420,2331,420,2263,420C2194.3,420,2126,420,2057,420C1988.6,420,1920,420,1851,420C1782.9,420,1714,420,1646,420C1577.1,420,1509,420,1440,420C1371.4,420,1303,420,1234,420C1165.7,420,1097,420,1029,420C960,420,891,420,823,420C754.3,420,686,420,617,420C548.6,420,480,420,411,420C342.9,420,274,420,206,420C137.1,420,69,420,34,420L0,420Z"/></svg>